1.9Hzlow3min_grf.mot
version=1
nRows=25
nColumns 19
inDegrees=yes
endheader
time	1_ground_force_vx	1_ground_force_vy	1_ground_force_vz	1_ground_force_px	1_ground_force_py	1_ground_force_pz	1_ground_torque_x	1_ground_torque_y	1_ground_torque_z	2_ground_force_vx	2_ground_force_vy	2_ground_force_vz	2_ground_force_px	2_ground_force_py	2_ground_force_pz	2_ground_torque_x	2_ground_torque_y	2_ground_torque_z
            1.253500	            0.274627	            3.604973	            0.106488	           -0.233013	            0.005581	           -0.255695	            0.388239	           -0.203472	            0.084956	            0.131868	            2.394770	           -0.085374	           -0.232311	            0.006130	           -0.833667	           -0.244071	           -0.057060	           -0.150900
            1.254000	            0.320081	            3.245237	           -0.078595	           -0.233013	            0.005581	           -0.255695	            0.302436	           -0.203474	            0.087137	            0.463141	            1.475213	           -0.088799	           -0.232311	            0.006130	           -0.833667	           -0.168810	           -0.094465	           -0.188767
            1.254500	            0.137718	            2.702832	            0.286389	           -0.233013	            0.005581	           -0.255695	            0.287167	           -0.194386	            0.098212	            0.368818	            1.658688	            0.005754	           -0.232311	            0.006130	           -0.833667	           -0.131367	           -0.056586	           -0.169798
            1.255000	            0.366508	            3.784864	            0.198746	           -0.233013	            0.005581	           -0.255695	            0.233973	           -0.064725	            0.071039	            0.369338	            1.475711	           -0.323400	           -0.232311	            0.006130	           -0.833667	           -0.187596	           -0.085349	           -0.113325
            1.255500	            0.366625	            2.523200	            0.147479	           -0.233013	            0.005581	           -0.255695	            0.293184	           -0.000253	            0.127608	            0.371538	            0.921593	            0.143910	           -0.232311	            0.006130	           -0.833667	           -0.206509	           -0.056857	           -0.169766
            1.256000	            0.183253	            2.523165	            0.147934	           -0.233013	            0.005581	           -0.255695	            0.218128	           -0.028163	            0.138654	            0.739567	            2.765434	           -0.131247	           -0.232311	            0.006130	           -0.833667	           -0.131258	           -0.075827	           -0.075615
            1.256500	            0.458278	            2.703484	            0.148024	           -0.233013	            0.005581	           -0.255695	            0.274276	           -0.092568	            0.112364	            0.370709	            1.107080	           -0.230858	           -0.232311	            0.006130	           -0.833667	           -0.168682	           -0.123025	           -0.132318
            1.257000	            0.366397	            2.523594	            0.055767	           -0.233013	            0.005581	           -0.255695	            0.165446	           -0.193909	            0.014306	            0.368776	            1.659023	           -0.088102	           -0.232311	            0.006130	           -0.833667	           -0.150058	           -0.084945	           -0.188742
            1.257500	            0.412240	            2.523603	            0.055653	           -0.233013	            0.005581	           -0.255695	            0.278281	           -0.258892	            0.090894	            0.418367	            0.921929	            0.096962	           -0.232311	            0.006130	           -0.833667	           -0.131162	           -0.113302	           -0.170001
            1.258000	            0.274741	            3.604777	            0.152344	           -0.233013	            0.005581	           -0.255695	            0.423719	           -0.120112	            0.047629	            0.328634	           -0.183132	            0.046132	           -0.232311	            0.006130	           -0.833667	           -0.112572	           -0.065769	           -0.226391
            1.258500	            0.091549	            3.244013	            0.197109	           -0.233013	            0.005581	           -0.255695	            0.159204	           -0.064866	            0.059515	            0.089027	            1.289544	           -0.042369	           -0.232311	            0.006130	           -0.833667	           -0.131281	           -0.084810	           -0.207600
            1.259000	            0.275394	            2.522396	            0.331130	           -0.233013	            0.005581	           -0.255695	            0.266533	            0.009030	            0.105006	            0.460503	            2.211639	           -0.039243	           -0.232311	            0.006130	           -0.833667	           -0.149932	           -0.104321	           -0.056858
            1.259500	            0.366739	            2.523004	            0.193335	           -0.233013	            0.005581	           -0.255695	            0.291051	           -0.046146	            0.052224	            0.462538	            1.658859	            0.052642	           -0.232311	            0.006130	           -0.833667	           -0.281890	            0.018224	           -0.094064
            1.260000	            0.229177	            2.703243	            0.194449	           -0.233013	            0.005581	           -0.255695	            0.272252	           -0.101835	            0.083757	            0.323297	            1.290222	            0.004460	           -0.232311	            0.006130	           -0.833667	           -0.244258	           -0.009662	           -0.188432
            1.260500	            0.320734	            2.162857	            0.100191	           -0.233013	            0.005581	           -0.255695	            0.332529	           -0.212141	           -0.044523	            0.137788	            0.737938	           -0.232072	           -0.232311	            0.006130	           -0.833667	           -0.243917	           -0.104189	           -0.188769
            1.261000	            0.274693	            3.244442	            0.104942	           -0.233013	            0.005581	           -0.255695	            0.294188	           -0.193521	           -0.083938	            0.417600	            1.106914	           -0.137021	           -0.232311	            0.006130	           -0.833667	           -0.262780	           -0.076101	           -0.132109
            1.261500	            0.092055	            2.342095	            0.330812	           -0.233013	            0.005581	           -0.255695	            0.322734	           -0.110805	            0.002550	            0.180007	            2.026978	           -0.180564	           -0.232311	            0.006130	           -0.833667	           -0.262736	           -0.094804	           -0.188727
            1.262000	            0.183675	            2.702644	            0.332131	           -0.233013	            0.005581	           -0.255695	            0.210094	           -0.009510	            0.101151	            0.271795	            2.579091	            0.009079	           -0.232311	            0.006130	           -0.833667	           -0.243918	           -0.095005	           -0.113335
            1.262500	            0.228934	            2.163036	            0.054563	           -0.233013	            0.005581	           -0.255695	            0.297127	           -0.009240	            0.046516	            0.368694	            1.659692	           -0.275814	           -0.232311	            0.006130	           -0.833667	           -0.131445	           -0.028430	           -0.113146
            1.263000	            0.183577	            3.243441	            0.334450	           -0.233013	            0.005581	           -0.255695	            0.303009	           -0.054661	           -0.143668	            0.511943	            0.923272	           -0.184646	           -0.232311	            0.006130	           -0.833667	           -0.206595	           -0.019450	           -0.056530
            1.263500	            0.321154	            3.603803	            0.381510	           -0.233013	            0.005581	           -0.255695	            0.282503	           -0.157003	            0.030978	            0.418826	            0.739455	           -0.372976	           -0.232311	            0.006130	           -0.833667	           -0.243832	           -0.123229	           -0.151136
            1.264000	            0.366721	            3.243870	            0.242283	           -0.233013	            0.005581	           -0.255695	            0.307574	           -0.212765	            0.107837	            0.180130	            2.025973	            0.101004	           -0.232311	            0.006130	           -0.833667	           -0.281463	           -0.104526	           -0.132203
            1.264500	            0.549979	            3.244102	            0.195972	           -0.233013	            0.005581	           -0.255695	            0.177953	           -0.184654	            0.040906	            0.506003	            2.580272	           -0.084877	           -0.232311	            0.006130	           -0.833667	           -0.206372	           -0.094668	           -0.169901
            1.265000	            0.366900	            2.883142	            0.286593	           -0.233013	            0.005581	           -0.255695	            0.249424	           -0.120179	            0.070795	            0.412947	            2.395953	           -0.132422	           -0.232311	            0.006130	           -0.833667	           -0.244012	           -0.066714	           -0.094383
            1.265500	            0.366167	            3.785453	            0.061178	           -0.233013	            0.005581	           -0.255695	            0.277371	           -0.000017	            0.071209	            0.225609	            2.394774	            0.008442	           -0.232311	            0.006130	           -0.833667	           -0.300187	           -0.132616	           -0.226547
